<svg width="196" height="196" viewBox="0 0 196 196" fill="none" xmlns="http://www.w3.org/2000/svg">
<g clip-path="url(#clip0_33_37)">
<rect width="196" height="196" fill="#5865F2"/>
<path d="M111.963 85.862C101.267 80.8762 89.6874 77.2575 77.6249 75.1666C77.4128 75.1696 77.2104 75.2564 77.062 75.4079C75.6145 78.0616 73.9257 81.5195 72.7999 84.1733C60.0055 82.2445 46.9943 82.2445 34.1999 84.1733C33.0741 81.4391 31.3853 78.0616 29.8574 75.4079C29.777 75.247 29.5357 75.1666 29.2945 75.1666C17.232 77.2575 5.73238 80.8762 -5.04345 85.862C-5.12387 85.862 -5.20428 85.9425 -5.2847 86.0229C-27.158 118.752 -33.1893 150.597 -30.2139 182.121C-30.2139 182.282 -30.1334 182.442 -29.9726 182.523C-15.4976 193.138 -1.58553 199.571 12.1657 203.833C12.407 203.914 12.6482 203.833 12.7286 203.672C15.9453 199.25 18.8403 194.585 21.3332 189.68C21.4941 189.358 21.3332 189.037 21.0116 188.956C16.4278 187.187 12.0853 185.096 7.82322 182.684C7.50156 182.523 7.50155 182.04 7.7428 181.799C8.62739 181.156 9.51197 180.432 10.3966 179.789C10.5574 179.628 10.7986 179.628 10.9595 179.708C38.6228 192.334 68.4574 192.334 95.7991 179.708C95.9599 179.628 96.2011 179.628 96.362 179.789C97.2466 180.512 98.1311 181.156 99.0157 181.88C99.3374 182.121 99.3374 182.603 98.9353 182.764C94.7536 185.257 90.3307 187.267 85.747 189.037C85.4253 189.117 85.3449 189.519 85.4253 189.76C87.9986 194.666 90.8936 199.33 94.0299 203.753C94.2711 203.833 94.5124 203.914 94.7536 203.833C108.585 199.571 122.497 193.138 136.972 182.523C137.133 182.442 137.214 182.282 137.214 182.121C140.752 145.692 131.343 114.088 112.284 86.0229C112.204 85.9425 112.124 85.862 111.963 85.862ZM25.5149 162.901C17.232 162.901 10.3161 155.262 10.3161 145.853C10.3161 136.444 17.0711 128.805 25.5149 128.805C34.0391 128.805 40.7941 136.525 40.7136 145.853C40.7136 155.262 33.9586 162.901 25.5149 162.901ZM81.5653 162.901C73.2824 162.901 66.3666 155.262 66.3666 145.853C66.3666 136.444 73.1216 128.805 81.5653 128.805C90.0895 128.805 96.8445 136.525 96.7641 145.853C96.7641 155.262 90.0895 162.901 81.5653 162.901Z" fill="black" fill-opacity="0.22"/>
<path d="M142.644 135.203C142.644 140.68 138.199 145.125 132.724 145.125H127.764C122.288 145.125 117.842 140.68 117.842 135.203V120.323C117.842 114.847 122.288 110.401 127.764 110.401H132.724V95.5193C132.724 76.3551 117.164 60.7966 98 60.7966C78.8358 60.7966 63.2761 76.3551 63.2761 95.5193V110.401H68.2363C73.7125 110.401 78.158 114.847 78.158 120.323V135.203C78.158 140.68 73.7125 145.125 68.2363 145.125H63.2761C57.8012 145.125 53.3557 140.68 53.3557 135.203V95.5193C53.3557 70.8802 73.3597 50.875 98 50.875C122.64 50.875 142.644 70.8802 142.644 95.5193V135.203Z" fill="white"/>
</g>
<defs>
<clipPath id="clip0_33_37">
<rect width="196" height="196" fill="white"/>
</clipPath>
</defs>
</svg>
